<?xml version="1.0" encoding="UTF-8"?>
<!DOCTYPE svg PUBLIC "-//W3C//DTD SVG 1.1//EN" "http://www.w3.org/Graphics/SVG/1.1/DTD/svg11.dtd">
<!-- Creator: CorelDRAW 2021 (64 Bit) -->
<svg xmlns="http://www.w3.org/2000/svg" xml:space="preserve" width="108.738mm" height="33.9098mm" version="1.1" style="shape-rendering:geometricPrecision; text-rendering:geometricPrecision; image-rendering:optimizeQuality; fill-rule:evenodd; clip-rule:evenodd"
viewBox="0 0 10873.8 3390.98"
 xmlns:xlink="http://www.w3.org/1999/xlink"
 xmlns:xodm="http://www.corel.com/coreldraw/odm/2003">
 <defs>
  <style type="text/css">
   <![CDATA[
    .fil0 {fill:#FEFEFE;fill-rule:nonzero}
   ]]>
  </style>
 </defs>
 <g id="Camada_x0020_1">
  <metadata id="CorelCorpID_0Corel-Layer"/>
  <path class="fil0" d="M2239.95 6.28l1103.23 0 66.94 0c124.55,0 187.26,43.21 187.26,129.64 0,67.78 -33.05,112.69 -99.99,134.72 -54.23,17.8 -86.43,29.66 -95.75,33.05 -9.32,4.23 -18.64,14.4 -28.81,28.81 -19.48,27.11 -29.65,69.48 -29.65,127.1l0 2486.06c0,57.62 10.17,99.99 29.65,126.26 10.17,15.25 19.49,24.57 28.81,28.8 9.32,4.24 41.52,15.26 95.75,33.05 66.94,22.03 99.99,66.94 99.99,134.73 0,85.58 -62.71,128.79 -187.26,128.79l-66.94 0 -1105.77 0 -81.34 0c-72.87,0 -127.95,-11.02 -165.23,-33.89 -37.28,-22.03 -55.92,-55.08 -55.92,-99.99 0,-72.87 39.82,-118.62 119.47,-136.42 64.4,-16.94 101.68,-27.11 113.54,-31.35 11.86,-4.24 22.88,-13.56 34.74,-28.81 24.57,-29.66 37.28,-76.26 37.28,-141.5l0 -2919.05zm-908.33 0l488.91 1395.55 216.07 -752.43 0 824.45 -573.65 1923.44 -131.33 0 -961.72 -2859.74c-33.05,-95.75 -67.79,-160.14 -104.22,-193.19 -22.04,-22.03 -58.47,-37.28 -111.85,-47.45 -107.61,-22.88 -160.99,-74.57 -160.99,-154.21 0,-43.22 15.25,-76.26 45.75,-99.99 29.66,-24.57 73.72,-36.43 131.34,-36.43l1161.69 0zm-967.65 1145.59l264.36 749.04 0 746.49c0,76.26 2.54,131.34 8.48,164.38 5.93,33.05 18.64,69.49 38.97,109.31 33.9,72.87 82.19,127.1 143.2,163.54l91.51 59.31c62.71,38.13 94.06,80.49 94.06,127.1 0,83.88 -61.86,126.25 -184.72,126.25l-624.48 0c-124.56,0 -187.26,-41.52 -187.26,-123.71 0,-27.11 5.08,-47.45 16.1,-61.01 11.01,-14.4 32.2,-30.5 63.55,-48.3 183.87,-99.13 276.23,-271.99 276.23,-516.87l0 -1495.53z"/>
  <path id="_1" class="fil0" d="M5364.9 3397.29l-1108.3 0 -64.4 0c-60.16,0 -105.92,-11.02 -138.96,-33.89 -32.2,-22.03 -48.3,-54.23 -48.3,-94.9 0,-67.79 33.05,-112.7 99.98,-134.73 54.23,-17.79 86.43,-28.81 95.75,-33.05 9.32,-4.23 18.64,-13.55 28.81,-28.8 19.49,-26.27 29.66,-68.64 29.66,-126.26l0 -2486.06c0,-57.62 -10.17,-99.99 -29.66,-127.1 -10.17,-14.41 -19.49,-24.58 -28.81,-28.81 -9.32,-3.39 -41.52,-15.25 -95.75,-33.05 -66.93,-22.03 -99.98,-66.94 -99.98,-134.72 0,-41.52 16.1,-73.72 48.3,-95.75 33.04,-22.88 78.8,-33.89 138.96,-33.89l64.4 0 1108.3 0 64.4 0c60.16,0 105.92,11.01 138.96,33.89 32.2,22.03 48.3,54.23 48.3,95.75 0,67.78 -33.05,112.69 -99.98,134.72 -54.23,17.8 -86.43,29.66 -95.75,33.05 -9.32,4.23 -18.64,14.4 -28.81,28.81 -19.49,27.11 -29.66,69.48 -29.66,127.1l0 2486.06c0,57.62 10.17,99.99 29.66,126.26 10.17,15.25 19.49,24.57 28.81,28.8 9.32,4.24 41.52,15.26 95.75,33.05 66.93,22.03 99.98,66.94 99.98,134.73 0,40.67 -16.1,72.87 -48.3,94.9 -33.04,22.87 -78.8,33.89 -138.96,33.89l-64.4 0z"/>
  <path id="_2" class="fil0" d="M7378.16 6.28l0 2919.05c0,65.24 12.71,111 37.28,139.81 13.56,16.1 26.27,26.26 38.13,30.5 11.02,4.24 50,14.41 114.39,31.35 80.5,17.8 120.32,63.55 120.32,136.42 0,43.22 -22.03,77.96 -65.24,104.22 -31.35,19.49 -83.89,29.66 -157.6,29.66l-84.74 0 -1108.3 0 -64.4 0c-60.16,0 -105.92,-11.02 -138.96,-33.89 -32.2,-22.03 -48.3,-54.23 -48.3,-94.9 0,-67.79 33.05,-112.7 99.98,-134.73 54.23,-17.79 86.43,-28.81 95.75,-33.05 9.32,-4.23 18.64,-13.55 28.81,-28.8 19.49,-26.27 29.66,-68.64 29.66,-126.26l0 -2486.06c0,-57.62 -10.17,-99.99 -29.66,-127.1 -10.17,-14.41 -19.49,-24.58 -28.81,-28.81 -9.32,-3.39 -41.52,-15.25 -95.75,-33.05 -66.93,-22.03 -99.98,-66.94 -99.98,-134.72 0,-41.52 16.1,-73.72 48.3,-95.75 33.04,-22.88 78.8,-33.89 138.96,-33.89l64.4 0 1105.76 0zm208.45 2092.9l0 -265.21c71.17,-16.95 122.01,-33.9 150.82,-52.54 29.66,-17.79 55.08,-45.75 76.26,-83.88 34.74,-64.4 52.53,-151.68 52.53,-260.98l0 -797.34c0,-77.95 -5.93,-135.57 -16.94,-173.7 -11.87,-38.13 -34.74,-72.87 -70.33,-104.22 -47.45,-46.61 -111.85,-75.42 -193.19,-87.28l0 -267.75c340.62,0 591.43,32.19 753.27,96.59 187.26,74.57 334.7,188.96 444,343.17 111.01,157.6 166.08,350.79 166.08,579.57 0,255.05 -55.92,464.34 -168.62,626.18 -112.69,160.99 -269.45,279.62 -471.96,355.88 -166.92,61.01 -407.57,91.51 -721.92,91.51z"/>
  <path id="_3" class="fil0" d="M10614.96 3397.29l-1108.3 0 -64.4 0c-60.16,0 -105.92,-11.02 -138.96,-33.89 -32.2,-22.03 -48.3,-54.23 -48.3,-94.9 0,-67.79 33.05,-112.7 99.98,-134.73 54.23,-17.79 86.43,-28.81 95.75,-33.05 9.32,-4.23 18.64,-13.55 28.81,-28.8 19.49,-26.27 29.66,-68.64 29.66,-126.26l0 -2486.06c0,-57.62 -10.17,-99.99 -29.66,-127.1 -10.17,-14.41 -19.49,-24.58 -28.81,-28.81 -9.32,-3.39 -41.52,-15.25 -95.75,-33.05 -66.93,-22.03 -99.98,-66.94 -99.98,-134.72 0,-41.52 16.1,-73.72 48.3,-95.75 33.04,-22.88 78.8,-33.89 138.96,-33.89l64.4 0 1108.3 0 64.4 0c60.16,0 105.92,11.01 138.96,33.89 32.2,22.03 48.3,54.23 48.3,95.75 0,67.78 -33.05,112.69 -99.98,134.72 -54.23,17.8 -86.43,29.66 -95.75,33.05 -9.32,4.23 -18.64,14.4 -28.81,28.81 -19.49,27.11 -29.66,69.48 -29.66,127.1l0 2486.06c0,57.62 10.17,99.99 29.66,126.26 10.17,15.25 19.49,24.57 28.81,28.8 9.32,4.24 41.52,15.26 95.75,33.05 66.93,22.03 99.98,66.94 99.98,134.73 0,40.67 -16.1,72.87 -48.3,94.9 -33.04,22.87 -78.8,33.89 -138.96,33.89l-64.4 0z"/>
 </g>
</svg>
